<?xml version="1.0" encoding="utf-8"?>
<!-- Generator: Adobe Illustrator 19.2.1, SVG Export Plug-In . SVG Version: 6.00 Build 0)  -->
<!DOCTYPE svg PUBLIC "-//W3C//DTD SVG 1.1//EN" "http://www.w3.org/Graphics/SVG/1.1/DTD/svg11.dtd">
<svg version="1.1" id="Layer_1" xmlns="http://www.w3.org/2000/svg" xmlns:xlink="http://www.w3.org/1999/xlink" x="0px" y="0px"
	 viewBox="0 0 252 144" enable-background="new 0 0 252 144" xml:space="preserve">
<polygon fill="#363938" points="80.7,36.1 14.4,36.1 14.4,55.3 35.3,55.3 35.3,109.7 59.7,109.7 59.7,55.3 80.7,55.3 "/>
<path fill="#363938" d="M111.3,36.1H78.5l0,19.2l24.4,0.1h8c9.4,0,15.6,6.7,15.6,17.6c0,10.8-5.7,17.7-14.5,17.7h-9.1V74.2H78.5
	v35.5h31.9c24.9,0,40.9-14.5,40.9-36.9S135.6,36.1,111.3,36.1z"/>
<path fill="#363938" d="M204.8,48.8l-14.1,16.7c-4.4-6-11-9.9-16.7-9.9c-8.8,0-15.2,7-15.2,16.8c0,9.9,6.4,17,15.2,17
	c5.2,0,11.9-3.3,16.7-8.4l14.1,15c-8.2,8.9-20.7,14.7-32,14.7c-22.6,0-39-16.1-39-38c0-21.6,16.8-37.4,39.9-37.4
	C184.9,35.4,197.2,40.6,204.8,48.8z"/>
<g>
	<path fill="#E0415B" d="M238.2,73c0,9.7-7.5,16.8-17.9,16.8c-10.4,0-17.9-7.1-17.9-16.8c0-9.7,7.5-16.6,17.9-16.6
		C230.7,56.3,238.2,63.3,238.2,73z M213.5,73c0,4.5,3.3,7.8,7,7.8c3.7,0,6.7-3.3,6.7-7.8c0-4.5-3-7.7-6.7-7.7
		C216.7,65.3,213.5,68.5,213.5,73z"/>
</g>
</svg>
