<?xml version="1.0" encoding="utf-8"?>
<!-- Generator: Adobe Illustrator 22.1.0, SVG Export Plug-In . SVG Version: 6.00 Build 0)  -->
<!DOCTYPE svg PUBLIC "-//W3C//DTD SVG 1.1//EN" "http://www.w3.org/Graphics/SVG/1.1/DTD/svg11.dtd">
<svg xmlns="http://www.w3.org/2000/svg" xmlns:xlink="http://www.w3.org/1999/xlink" x="0px" y="0px"
	 viewBox="0 0 491.2 276.3"  xml:space="preserve">
<style type="text/css">
	.st0{fill:#353838;}
	.st1{fill:#DF405A;}
</style>
<polygon class="st0" points="201.3,101.9 135,101.9 135,121.1 155.9,121.1 155.9,175.5 180.3,175.5 180.3,121.1 201.3,121.1 "/>
<path class="st0" d="M231.9,101.9H199l0,19.2l24.4,0.1h8c9.4,0,15.6,6.7,15.6,17.6c0,10.8-5.7,17.7-14.5,17.7h-9.1v-16.6H199v35.5
	H231c24.9,0,40.9-14.5,40.9-36.9S256.2,101.9,231.9,101.9z"/>
<path class="st0" d="M325.4,114.4l-14.1,16.7c-4.4-6-11-9.9-16.7-9.9c-8.8,0-15.2,7-15.2,16.8c0,9.9,6.4,17,15.2,17
	c5.2,0,11.9-3.3,16.7-8.4l14.1,15c-8.2,8.9-20.7,14.7-32,14.7c-22.6,0-39-16.1-39-38c0-21.6,16.8-37.4,39.9-37.4
	C305.5,101,317.8,106.2,325.4,114.4z"/>
<g>
	<path class="st1" d="M358.8,138.6c0,9.7-7.5,16.8-17.9,16.8c-10.4,0-17.9-7.1-17.9-16.8c0-9.7,7.5-16.6,17.9-16.6
		C351.3,121.9,358.8,128.9,358.8,138.6z M334,138.6c0,4.5,3.3,7.8,7,7.8c3.7,0,6.7-3.3,6.7-7.8c0-4.5-3-7.7-6.7-7.7
		C337.3,130.9,334,134.1,334,138.6z"/>
</g>
</svg>
