<?xml version="1.0" standalone="no"?>
<!DOCTYPE svg PUBLIC "-//W3C//DTD SVG 20010904//EN"
 "http://www.w3.org/TR/2001/REC-SVG-20010904/DTD/svg10.dtd">
<svg version="1.0" xmlns="http://www.w3.org/2000/svg"
 width="279.000000pt" height="279.000000pt" viewBox="0 0 279.000000 279.000000"
 preserveAspectRatio="xMidYMid meet">
<metadata>
Created by potrace 1.11, written by Peter Selinger 2001-2013
</metadata>
<g transform="translate(0.000000,279.000000) scale(0.100000,-0.100000)"
fill="#000000" stroke="none">
<path d="M1846 1844 c-70 -17 -158 -62 -206 -107 l-35 -32 -61 46 c-34 26 -90
57 -125 70 l-64 24 -672 3 -673 3 0 -121 0 -120 130 0 130 0 0 -335 0 -335
150 0 150 0 0 335 0 335 338 0 c307 0 341 -2 378 -19 158 -72 148 -355 -15
-410 -19 -6 -63 -11 -97 -11 l-64 0 0 105 0 105 -155 0 -155 0 0 -220 0 -220
251 0 c196 0 264 3 312 16 72 18 147 55 199 97 l37 30 39 -35 c150 -135 364
-162 557 -69 75 36 179 115 173 131 -2 4 -40 47 -85 95 l-82 87 -41 -32 c-48
-38 -127 -70 -173 -70 -46 0 -118 39 -144 79 -88 131 -24 310 119 336 55 10
128 -18 188 -72 28 -25 55 -42 59 -37 4 5 43 51 87 103 l79 94 -45 39 c-122
108 -315 153 -484 112z"/>
<path d="M2481 1587 c-19 -6 -54 -29 -77 -51 -72 -70 -82 -168 -25 -258 78
-123 294 -123 372 0 57 89 47 188 -25 257 -63 61 -156 80 -245 52z m140 -126
c33 -33 38 -75 14 -120 -40 -78 -155 -37 -155 56 0 43 45 93 85 93 16 0 38
-12 56 -29z"/>
</g>
</svg>
